<svg viewBox="0 0 375 375" xmlns="http://www.w3.org/2000/svg"><path d="M187.508 68.336v65.129L238.699 83.3V18.19z" fill="#287ee1"/><path d="M136.313 18.191v65.11l51.195 50.164v-65.13z" fill="#3895ff"/><path d="m136.313 18.191 51.195 50.145 51.191-50.145z" fill="#64acff"/><path d="M187.484 306.625v-65.129l-51.191 50.164v65.11z" fill="#14848f"/><path d="M238.68 356.77v-65.11l-51.196-50.164v65.129z" fill="#27b8c6"/><path d="m238.68 356.77-51.196-50.145-51.191 50.145z" fill="#43d1df"/><path d="M303.828 187.95H238.7l50.168 51.195h65.11z" fill="#ffc000"/><path d="M353.977 136.758h-65.11L238.7 187.949h65.13z" fill="#826200"/><path d="m353.977 136.758-50.149 51.191 50.149 51.196z" fill="#ffd452"/><path d="M71.164 187.012h65.129l-50.168-51.196h-65.11z" fill="#742774"/><path d="M21.016 238.203h65.109l50.168-51.191H71.164z" fill="#bd47bd"/><path d="m21.016 238.203 50.148-51.191-50.148-51.196z" fill="#d671d6"/><path d="M230.086 208.98a.977.977 0 0 0-.324-.738c-7.371-7.12-14.746-14.242-22.121-21.363l-.325-.313c6.868-7.109 13.73-14.218 20.598-21.328l.98-1.015a1.062 1.062 0 0 0-.023-1.493l-18.562-17.925a1.066 1.066 0 0 0-1.493.027l-21.328 22.086a15.33 15.33 0 0 0-.25.258c-7.12-6.875-14.242-13.75-21.363-20.63-.363-.347-.723-.694-1.082-1.042a1.066 1.066 0 0 0-1.492.027l-17.926 18.563a1.066 1.066 0 0 0 .027 1.492 57067.63 57067.63 0 0 1 22.121 21.36l.325.312a104926.389 104926.389 0 0 1-21.77 22.543 1.066 1.066 0 0 0 .027 1.492l18.563 17.926c.414.398 1.09.386 1.492-.028 7.13-7.386 14.262-14.77 21.395-22.156l.375-.387 21.363 20.63c.36.347.719.695 1.082 1.042a1.06 1.06 0 0 0 1.488-.023c5.977-6.192 11.95-12.375 17.926-18.567a.978.978 0 0 0 .297-.75" fill="#5552b4"/></svg>